<?xml version="1.0" encoding="utf-8"?>
<!-- Generator: Adobe Illustrator 27.9.0, SVG Export Plug-In . SVG Version: 6.00 Build 0)  -->
<svg version="1.1" id="Layer_1" xmlns="http://www.w3.org/2000/svg" xmlns:xlink="http://www.w3.org/1999/xlink" x="0px" y="0px"
	 viewBox="0 0 168 27" style="enable-background:new 0 0 168 27;" xml:space="preserve">
<style type="text/css">
	.st0{fill:url(#SVGID_1_);}
	.st1{fill:url(#SVGID_00000099656634613165744940000016159235849446668456_);}
	.st2{fill:url(#SVGID_00000135657475151232254400000005775820310823140753_);}
	.st3{fill:url(#SVGID_00000114070731947490068740000011465219513043420581_);}
	.st4{fill:url(#SVGID_00000134934849689647885880000003155367157238611609_);}
	.st5{fill:url(#SVGID_00000034079647105391044250000012605410121712344726_);}
	.st6{fill:url(#SVGID_00000077305149117019807900000005952087078535411118_);}
	.st7{fill:url(#SVGID_00000165922322426078806280000005764871580912400534_);}
	.st8{fill:none;stroke:url(#SVGID_00000060744585082333739220000016671237250476290982_);stroke-width:0.5493;}
	.st9{fill:none;stroke:url(#SVGID_00000117640108530970559620000007238660164329962374_);stroke-width:0.5493;}
	.st10{fill:url(#SVGID_00000078008531190124177700000003841674007714314408_);}
	.st11{fill:#1F8AFF;}
	.st12{fill:none;}
</style>
<g>
	
		<linearGradient id="SVGID_1_" gradientUnits="userSpaceOnUse" x1="31.3512" y1="26.2247" x2="31.6624" y2="26.2184" gradientTransform="matrix(1 0 0 -1 0 28)">
		<stop  offset="0" style="stop-color:#26A4FF"/>
		<stop  offset="1" style="stop-color:#0D9AFF"/>
	</linearGradient>
	<path class="st0" d="M31.5,1.9c0.1,0,0.2-0.1,0.2-0.2c0-0.1-0.1-0.2-0.2-0.2c-0.1,0-0.2,0.1-0.2,0.2C31.3,1.9,31.4,1.9,31.5,1.9z"
		/>
</g>
<g>
	
		<linearGradient id="SVGID_00000002364097179785533920000000932858850033105582_" gradientUnits="userSpaceOnUse" x1="5.3017" y1="22.392" x2="6.109" y2="22.3756" gradientTransform="matrix(1 0 0 -1 0 28)">
		<stop  offset="0" style="stop-color:#26A4FF"/>
		<stop  offset="1" style="stop-color:#0D9AFF"/>
	</linearGradient>
	<path style="fill:url(#SVGID_00000002364097179785533920000000932858850033105582_);" d="M5.7,6c0.2,0,0.4-0.2,0.4-0.4
		c0-0.2-0.2-0.4-0.4-0.4S5.3,5.4,5.3,5.6C5.3,5.8,5.5,6,5.7,6z"/>
</g>
<g>
	
		<linearGradient id="SVGID_00000030481697457053136260000012742988330366210708_" gradientUnits="userSpaceOnUse" x1="1.1195" y1="10.0236" x2="1.9269" y2="10.0074" gradientTransform="matrix(1 0 0 -1 0 28)">
		<stop  offset="0" style="stop-color:#26A4FF"/>
		<stop  offset="1" style="stop-color:#0D9AFF"/>
	</linearGradient>
	<path style="fill:url(#SVGID_00000030481697457053136260000012742988330366210708_);" d="M1.5,18.4c0.2,0,0.4-0.2,0.4-0.4
		c0-0.2-0.2-0.4-0.4-0.4S1.1,17.8,1.1,18C1.1,18.2,1.3,18.4,1.5,18.4z"/>
</g>
<g>
	
		<linearGradient id="SVGID_00000044868921000062315030000005858686588952025988_" gradientUnits="userSpaceOnUse" x1="25.1602" y1="6.6285" x2="25.9675" y2="6.6121" gradientTransform="matrix(1 0 0 -1 0 28)">
		<stop  offset="0" style="stop-color:#26A4FF"/>
		<stop  offset="1" style="stop-color:#0D9AFF"/>
	</linearGradient>
	<path style="fill:url(#SVGID_00000044868921000062315030000005858686588952025988_);" d="M25.5,21.8c0.2,0,0.4-0.2,0.4-0.4
		S25.8,21,25.5,21c-0.2,0-0.4,0.2-0.4,0.4S25.3,21.8,25.5,21.8z"/>
</g>
<g>
	
		<linearGradient id="SVGID_00000080925645436102217990000006430864222792728472_" gradientUnits="userSpaceOnUse" x1="6.3801" y1="13.5142" x2="6.6913" y2="13.508" gradientTransform="matrix(1 0 0 -1 0 28)">
		<stop  offset="0" style="stop-color:#26A4FF"/>
		<stop  offset="1" style="stop-color:#0D9AFF"/>
	</linearGradient>
	<path style="fill:url(#SVGID_00000080925645436102217990000006430864222792728472_);" d="M6.5,14.7c0.1,0,0.2-0.1,0.2-0.2
		s-0.1-0.2-0.2-0.2c-0.1,0-0.2,0.1-0.2,0.2S6.4,14.7,6.5,14.7z"/>
</g>
<g>
	
		<linearGradient id="SVGID_00000004522685048665784270000013303506689689867659_" gradientUnits="userSpaceOnUse" x1="12.2925" y1="26.7489" x2="12.7815" y2="26.739" gradientTransform="matrix(1 0 0 -1 0 28)">
		<stop  offset="0" style="stop-color:#26A4FF"/>
		<stop  offset="1" style="stop-color:#0D9AFF"/>
	</linearGradient>
	<path style="fill:url(#SVGID_00000004522685048665784270000013303506689689867659_);" d="M12.5,1.5c0.1,0,0.2-0.1,0.2-0.3
		S12.7,1,12.5,1c-0.1,0-0.2,0.1-0.2,0.3S12.4,1.5,12.5,1.5z"/>
</g>
<g>
	
		<linearGradient id="SVGID_00000021105879280659395560000002989041159240245636_" gradientUnits="userSpaceOnUse" x1="4.1976" y1="16.5612" x2="1.7608" y2="16.1573" gradientTransform="matrix(1 0 0 -1 0 28)">
		<stop  offset="0" style="stop-color:#26A4FF"/>
		<stop  offset="1" style="stop-color:#0D9AFF"/>
	</linearGradient>
	<path style="fill:url(#SVGID_00000021105879280659395560000002989041159240245636_);" d="M3.2,12.9c-0.1,0-0.2,0-0.2-0.1
		C2.8,12,2.7,11.9,2,12c-0.1,0-0.2-0.1-0.2-0.1c0-0.1,0-0.2,0.1-0.2c0.7-0.2,0.8-0.3,0.8-1.1c0-0.1,0.1-0.2,0.1-0.2
		c0.1,0,0.2,0,0.2,0.1c0.2,0.8,0.3,0.8,1.1,0.8c0.1,0,0.2,0.1,0.2,0.1c0,0.1,0,0.2-0.1,0.2c-0.7,0.2-0.8,0.3-0.8,1.1
		C3.4,12.8,3.3,12.9,3.2,12.9z"/>
</g>
<linearGradient id="SVGID_00000046334794595552770820000009782023513627819964_" gradientUnits="userSpaceOnUse" x1="2.6669" y1="27.404" x2="27.6076" y2="3.4225" gradientTransform="matrix(1 0 0 -1 0 28)">
	<stop  offset="0" style="stop-color:#868CFF"/>
	<stop  offset="1" style="stop-color:#4318FF"/>
</linearGradient>
<path style="fill:url(#SVGID_00000046334794595552770820000009782023513627819964_);" d="M16.6,6.2c-0.2,0.1-0.4,0.3-0.4,0.5
	c0,0.2,0.1,0.4,0.4,0.5c1.7,0.7,3,2,3.6,3.8c0.1,0.2,0.3,0.4,0.5,0.4c0.2,0,0.4-0.1,0.5-0.4c0.6-1.8,2-3.1,3.6-3.8
	c0.2-0.1,0.4-0.3,0.4-0.5c0-0.2-0.1-0.4-0.4-0.5c-1.7-0.7-3-2-3.6-3.8C21.2,2.2,21,2,20.8,2c-0.2,0-0.4,0.1-0.5,0.4
	C19.6,4.2,18.3,5.5,16.6,6.2z M10.9,5.6c-0.1-0.3-0.4-0.5-0.7-0.5c-0.3,0-0.6,0.2-0.7,0.5c-1.6,3.6-4.4,6.5-7.8,8.1
	c-0.3,0.1-0.4,0.4-0.4,0.7c0,0.3,0.2,0.6,0.4,0.7c3.4,1.7,6.2,4.5,7.8,8.1c0.1,0.3,0.4,0.5,0.7,0.5c0.3,0,0.6-0.2,0.7-0.5
	c1.6-3.6,4.4-6.5,7.8-8.1c0.3-0.1,0.4-0.4,0.4-0.7c0-0.3-0.2-0.6-0.4-0.7C15.3,12.1,12.5,9.2,10.9,5.6z M20.3,18
	c-0.6,1.8-2,3.1-3.6,3.8c-0.2,0.1-0.4,0.3-0.4,0.5c0,0.2,0.1,0.4,0.4,0.5c1.7,0.7,3,2,3.6,3.8c0.1,0.2,0.3,0.4,0.5,0.4
	c0.2,0,0.4-0.1,0.5-0.4c0.6-1.8,2-3.1,3.6-3.8c0.2-0.1,0.4-0.3,0.4-0.5c0-0.2-0.1-0.4-0.4-0.5c-1.7-0.7-3-2-3.6-3.8
	c-0.1-0.2-0.3-0.4-0.5-0.4C20.6,17.6,20.4,17.8,20.3,18z"/>
<linearGradient id="SVGID_00000166658004516451063110000016743294829159757241_" gradientUnits="userSpaceOnUse" x1="14.3589" y1="7.8679" x2="13.2905" y2="10.8819" gradientTransform="matrix(1 0 0 -1 0 28)">
	<stop  offset="0" style="stop-color:#3F5FFF"/>
	<stop  offset="1" style="stop-color:#3F5FFF;stop-opacity:0"/>
</linearGradient>
<path style="fill:none;stroke:url(#SVGID_00000166658004516451063110000016743294829159757241_);stroke-width:0.5493;" d="M13,16.1
	c-7.2,2.6-12.6,5.7-12.2,7c0.4,1.3,6.6,0.2,13.7-2.4c7.2-2.6,12.6-5.7,12.2-7C26.3,12.4,20.1,13.5,13,16.1z"/>
<g>
	
		<linearGradient id="SVGID_00000163052191766555689180000016653853430206408888_" gradientUnits="userSpaceOnUse" x1="14.3588" y1="7.8684" x2="13.2904" y2="10.8823" gradientTransform="matrix(1 0 0 -1 0 28)">
		<stop  offset="0" style="stop-color:#1DA0FF"/>
		<stop  offset="1" style="stop-color:#199FFF;stop-opacity:0.13"/>
	</linearGradient>
	<path style="fill:none;stroke:url(#SVGID_00000163052191766555689180000016653853430206408888_);stroke-width:0.5493;" d="M13,16.1
		c-7.2,2.6-12.6,5.7-12.2,7c0.4,1.3,6.6,0.2,13.7-2.4c7.2-2.6,12.6-5.7,12.2-7C26.3,12.4,20.1,13.5,13,16.1z"/>
</g>
<g>
	
		<linearGradient id="SVGID_00000002343199228141657170000012766749629772089993_" gradientUnits="userSpaceOnUse" x1="25.7174" y1="22.2116" x2="22.3361" y2="22.6081" gradientTransform="matrix(1 0 0 -1 0 28)">
		<stop  offset="0" style="stop-color:#26A4FF"/>
		<stop  offset="1" style="stop-color:#0D9AFF"/>
	</linearGradient>
	<path style="fill:url(#SVGID_00000002343199228141657170000012766749629772089993_);" d="M23.9,7.4c-0.1,0-0.2-0.1-0.2-0.2
		c0-1.1-0.1-1.3-1.1-1.5c-0.1,0-0.2-0.1-0.2-0.3c0-0.1,0.1-0.2,0.2-0.2c1,0,1.1-0.1,1.5-1.1c0-0.1,0.1-0.2,0.2-0.2
		c0.1,0,0.2,0.1,0.2,0.2c0,1.1,0.1,1.3,1.1,1.5c0.1,0,0.2,0.1,0.2,0.3c0,0.1-0.1,0.2-0.2,0.2c-1,0-1.1,0.1-1.5,1.1
		C24.1,7.3,24,7.4,23.9,7.4z"/>
</g>
<g>
	<g>
		<path class="st11" d="M53.8,21.6c-1.8,0.1-3.5,0.3-5.3,0.5c-0.2-0.3-0.3-0.8-0.4-1.4c-1.2,1.4-2.9,2.2-6.2,2.8
			c-6.3,1.4-9.7-2.2-9.7-9.1c0-6.4,3-11.3,11.3-9.4c5.6,1,9.6,3.2,10.2,6.3c-2.7-0.1-5.4-0.2-8.1-0.4c-0.3-0.9-0.8-1.6-2.2-1.7
			c-2.3-0.2-2.8,2.2-2.8,4.7c0,2.9,0.8,5.1,3,4.9c2-0.2,2.3-1.4,2.3-2c0,0,0-0.1,0-0.1c-0.9,0-1.7,0.1-2.6,0.1c0-1.4,0-2.9,0-4.3
			c3.4,0.1,6.9,0.2,10.3,0.2C53.8,15.8,53.8,18.7,53.8,21.6z"/>
		<path class="st11" d="M65.3,21.1c0-0.8,0-1.6,0-2.5c-3.1,0-6.1,0.1-9.2,0.2c0-1.2,0-2.4,0-3.6c2.3-2.5,4.6-4.9,7-7.2
			c3.2,0.1,6.5,0.1,9.7,0c0,2.3,0,4.6,0,6.9c0.9,0,1.7,0,2.6,0c-0.2,1.2-0.4,2.5-0.6,3.7c-0.7,0-1.3,0-2,0c0,0.8,0,1.7,0,2.5
			C70.3,21.1,67.8,21.1,65.3,21.1z M65.3,14.6c0-0.7,0.1-2.5,0.1-3.1c-0.7,1-1.7,2.4-2.6,3.4c0.8,0,1.6,0,2.4,0
			C65.3,14.8,65.3,14.7,65.3,14.6z"/>
		<path class="st11" d="M77.7,7.2c2.7-0.1,5.4-0.3,8.1-0.5c0,3.7,0,7.3,0,11c3.2,0.1,6.3,0.2,9.5,0.3c-0.3,1.5-0.6,2.9-0.8,4.4
			c-5.6-0.5-11.2-0.9-16.7-1.1C77.7,16.6,77.7,11.9,77.7,7.2z"/>
		<path class="st11" d="M96.6,22.6c0-2.1,0-4.1,0-6.2c2.2,0,4.4,0.1,6.6,0.1c0,2.2,0,4.4,0,6.6C101,23,98.8,22.8,96.6,22.6z"/>
		<path class="st11" d="M114.4,24.1c0-1.2,0-2.4,0-3.5c-3.1-0.1-6.1-0.3-9.2-0.5c0-1.5,0-3,0-4.6c2.3-3.1,4.6-6.5,7-10
			c3.2-0.2,6.5-0.4,9.7-0.6c0,3.4,0,6.9,0,10.3c0.9,0,1.7,0,2.6,0c-0.2,1.9-0.4,3.7-0.6,5.6c-0.7,0-1.3,0-2-0.1c0,1.2,0,2.5,0,3.7
			C119.4,24.4,116.9,24.3,114.4,24.1z M114.4,14.8c0-1.1,0.1-3.5,0.1-4.4c-0.7,1.4-1.7,3.5-2.6,4.8c0.8,0,1.6,0,2.4,0
			C114.4,15.1,114.4,15,114.4,14.8z"/>
		<path class="st11" d="M133.3,8.8c0.4,1.2,0.9,3.3,1.2,4.4c0.1,0,0.1,0,0.2,0c0.4-1.6,0.9-3.6,1.2-4.4c2.8,0,5.6,0.1,8.4,0.2
			c-1.6,2.4-3.1,4.9-4.7,7.4c1.6,2.8,3.2,5.5,4.8,8.2c-2.9,0.2-5.8,0.3-8.7,0.3c-0.7-1.9-1.1-3.4-1.3-4.1c0,0-0.1,0-0.1,0
			c-0.3,1-0.8,2.9-1.2,4.1c-2.8,0-5.6-0.1-8.5-0.2c1.6-2.5,3.3-5.1,4.9-7.7c-1.6-2.7-3.2-5.5-4.9-8.1C127.4,8.8,130.4,8.8,133.3,8.8
			z"/>
		<path class="st11" d="M150.4,24c0-2.2,0-4.4,0-6.6c0-0.4-0.1-0.6-0.3-0.9c-2.4-4-4.7-8.3-7.1-12.7c3.1,0.2,6.2,0.4,9.4,0.8
			c1,2.5,1.6,4.5,2.5,6.8c0.8-2.1,1.4-3.7,2.5-6.1c2.9,0.5,5.7,1,8.6,1.7c-2.4,2.4-4.8,5.6-7.2,9.3c-0.1,0.2-0.2,0.4-0.2,0.8
			c0,1.9,0,3.8,0,5.7C155.7,23.4,153,23.8,150.4,24z"/>
	</g>
</g>
<rect x="78.8" y="8" class="st12" width="4" height="0"/>
<rect x="58.7" y="6.9" class="st12" width="21.8" height="0.8"/>
</svg>
